<svg width="60" height="60" viewBox="0 0 60 60" fill="none" xmlns="http://www.w3.org/2000/svg">
<path fill-rule="evenodd" clip-rule="evenodd" d="M21.4104 41.2809C15.2323 36.8744 11 28.3296 11 20.9229C11 10.4152 19.5182 3 30.0259 3C40.5336 3 49.0517 10.4152 49.0517 20.9229C49.0517 28.3296 44.8194 37.1577 38.6414 41.5642H36.1285C35.9302 41.5642 35.7695 41.4035 35.7695 41.2052V39.7344V31.5335C35.7695 30.3439 34.8052 29.3796 33.6157 29.3796C32.4261 29.3796 31.4618 30.3439 31.4618 31.5335V41.2052C31.4618 41.4035 31.3011 41.5642 31.1028 41.5642H28.9489C28.7507 41.5642 28.59 41.4035 28.59 41.2052V31.5335C28.59 30.3439 27.6256 29.3796 26.4361 29.3796C25.2465 29.3796 24.2822 30.3439 24.2822 31.5335V39.7344V40.9219C24.2822 41.1201 24.1215 41.2809 23.9232 41.2809H21.4104ZM46.1799 20.9229C46.1799 25.4719 44.3055 30.706 41.1947 34.7899C40.3961 35.8382 39.5403 36.7814 38.6414 37.6046V27.6645C38.6414 27.2906 38.5246 26.926 38.3073 26.6217L30.6102 15.8391C30.3239 15.438 29.7278 15.438 29.4415 15.8391L21.7444 26.6217C21.5272 26.926 21.4104 27.2906 21.4104 27.6645V37.6046C20.5114 36.7814 19.6556 35.8382 18.8571 34.7899C15.7462 30.706 13.8718 25.4719 13.8718 20.9229C13.8718 12.0013 21.1042 5.87183 30.0259 5.87183C38.9475 5.87183 46.1799 12.0013 46.1799 20.9229ZM30.0259 19.9634L34.7973 26.6475C34.4183 26.5562 34.0226 26.5078 33.6157 26.5078C32.2094 26.5078 30.938 27.0854 30.0259 28.0162C29.1137 27.0854 27.8423 26.5078 26.4361 26.5078C26.0291 26.5078 25.6334 26.5562 25.2545 26.6475L30.0259 19.9634Z" fill="#F8BC24"/>
<rect x="21.0508" y="43.7168" width="17.9487" height="2.8718" rx="1.4359" fill="#AFAFAF"/>
<rect x="21.0508" y="48.0244" width="17.9487" height="2.8718" rx="1.4359" fill="#AFAFAF"/>
<path d="M34.3337 52.332C34.532 52.332 34.6941 52.493 34.6789 52.6907C34.6411 53.1807 34.5261 53.6624 34.3375 54.1179C34.103 54.6841 33.7592 55.1985 33.3259 55.6319C32.8925 56.0652 32.3781 56.4089 31.8119 56.6435C31.2457 56.878 30.6389 56.9987 30.026 56.9987C29.4132 56.9987 28.8064 56.878 28.2402 56.6435C27.674 56.4089 27.1596 56.0652 26.7262 55.6319C26.2929 55.1985 25.9491 54.6841 25.7146 54.1179C25.5259 53.6624 25.4109 53.1807 25.3732 52.6907C25.3579 52.493 25.5201 52.332 25.7183 52.332L30.026 52.332H34.3337Z" fill="white"/>
</svg>
