<svg width="115" height="115" viewBox="0 0 115 115" fill="none" xmlns="http://www.w3.org/2000/svg">
<circle cx="57.5" cy="57.5" r="57.5" fill="#3746D2"/>
<g clip-path="url(#clip0_615_4)">
<path d="M69.0732 65.212L58 76.2852L46.9268 65.212C38.6277 65.5718 32 72.362 32 80.7423V81.8566C32 84.9325 34.4955 87.4281 37.5714 87.4281H78.4286C81.5045 87.4281 84 84.9325 84 81.8566V80.7423C84 72.362 77.3723 65.5718 69.0732 65.212ZM33.5786 37.262L34.3214 37.4361V44.2147C33.5089 44.7022 32.9286 45.5495 32.9286 46.5709C32.9286 47.5459 33.4625 48.3584 34.217 48.8575L32.4062 56.0888C32.2089 56.8897 32.65 57.7138 33.2884 57.7138H38.1402C38.7786 57.7138 39.2196 56.8897 39.0223 56.0888L37.2116 48.8575C37.9661 48.3584 38.5 47.5459 38.5 46.5709C38.5 45.5495 37.9196 44.7022 37.1071 44.2147V38.1093L44.7679 39.9548C43.7696 41.9513 43.1429 44.1798 43.1429 46.5709C43.1429 54.7772 49.7937 61.4281 58 61.4281C66.2062 61.4281 72.8571 54.7772 72.8571 46.5709C72.8571 44.1798 72.242 41.9513 71.2321 39.9548L82.4098 37.262C84.5223 36.7513 84.5223 34.1164 82.4098 33.6057L60.3098 28.2664C58.8009 27.9066 57.2107 27.9066 55.7018 28.2664L33.5786 33.5941C31.4777 34.1048 31.4777 36.7513 33.5786 37.262Z" fill="white"/>
</g>
<defs>
<clipPath id="clip0_615_4">
<rect width="52" height="59.4286" fill="white" transform="translate(32 28)"/>
</clipPath>
</defs>
</svg>
