<svg width="512" height="512" viewBox="0 0 512 512" fill="none" xmlns="http://www.w3.org/2000/svg">
<path fill-rule="evenodd" clip-rule="evenodd" d="M214.441 308.95C184.411 287.531 163.84 245.998 163.84 209.997C163.84 158.923 205.244 122.88 256.318 122.88C307.392 122.88 348.795 158.923 348.795 209.997C348.795 245.998 328.224 288.908 298.194 310.327H285.98C285.017 310.327 284.235 309.546 284.235 308.582V301.433V261.571C284.235 255.789 279.548 251.102 273.766 251.102C267.984 251.102 263.297 255.789 263.297 261.571V308.582C263.297 309.546 262.516 310.327 261.552 310.327H251.083C250.119 310.327 249.338 309.546 249.338 308.582V261.571C249.338 255.789 244.651 251.102 238.869 251.102C233.087 251.102 228.4 255.789 228.4 261.571V301.433V307.205C228.4 308.168 227.619 308.95 226.655 308.95H214.441ZM334.836 209.997C334.836 232.108 325.726 257.549 310.605 277.399C306.724 282.495 302.564 287.079 298.194 291.081V242.766C298.194 240.948 297.627 239.176 296.571 237.697L259.158 185.286C257.766 183.337 254.869 183.337 253.477 185.286L216.064 237.697C215.008 239.176 214.441 240.948 214.441 242.766V291.081C210.071 287.079 205.912 282.495 202.03 277.399C186.909 257.549 177.799 232.108 177.799 209.997C177.799 166.632 212.953 136.839 256.318 136.839C299.682 136.839 334.836 166.632 334.836 209.997ZM256.318 205.333L279.51 237.822C277.668 237.378 275.744 237.143 273.766 237.143C266.931 237.143 260.751 239.95 256.318 244.475C251.884 239.95 245.704 237.143 238.869 237.143C236.891 237.143 234.968 237.378 233.126 237.822L256.318 205.333Z" fill="#045188"/>
<rect x="212.701" y="320.795" width="87.2422" height="13.9587" rx="6.97937" fill="#2C3440"/>
<rect x="212.701" y="341.733" width="87.2422" height="13.9587" rx="6.97937" fill="#2C3440"/>
<path d="M277.252 362.67C278.216 362.67 279.004 363.453 278.93 364.414C278.746 366.795 278.187 369.137 277.27 371.351C276.13 374.103 274.459 376.603 272.353 378.71C270.247 380.816 267.746 382.487 264.994 383.627C262.242 384.767 259.293 385.353 256.314 385.353C253.335 385.353 250.385 384.767 247.633 383.627C244.881 382.487 242.381 380.816 240.275 378.71C238.168 376.603 236.497 374.103 235.357 371.351C234.441 369.137 233.882 366.795 233.698 364.414C233.624 363.453 234.412 362.67 235.376 362.67L256.314 362.67H277.252Z" fill="#0695E4"/>
</svg>
