<svg width="20" height="20" viewBox="0 0 20 20" fill="none" xmlns="http://www.w3.org/2000/svg">
<g clip-path="url(#clip0_636_4)">
<g clip-path="url(#clip1_636_4)">
<path d="M15.755 11.8265L12.6178 10.2578C12.5251 10.2118 12.4219 10.1909 12.3187 10.1975C12.2154 10.204 12.1157 10.2377 12.0296 10.2951L10.4923 11.3196C9.7141 10.9212 9.08095 10.288 8.68249 9.5098L9.70798 7.97353C9.76539 7.88742 9.79906 7.7877 9.8056 7.68441C9.81214 7.58113 9.79132 7.47796 9.74524 7.38529L8.17661 4.24804C8.12784 4.14989 8.05261 4.06731 7.95942 4.00963C7.86622 3.95194 7.75876 3.92144 7.64916 3.92157C6.6611 3.92157 5.7135 4.31408 5.01484 5.01274C4.31617 5.7114 3.92367 6.659 3.92367 7.64706C3.92626 9.8824 4.8154 12.0254 6.39603 13.6061C7.97665 15.1867 10.1197 16.0758 12.355 16.0784C13.3431 16.0784 14.2907 15.6859 14.9894 14.9873C15.688 14.2886 16.0805 13.341 16.0805 12.3529C16.0806 12.2436 16.0501 12.1364 15.9926 12.0434C15.9351 11.9504 15.8529 11.8753 15.755 11.8265ZM12.355 14.902C10.4316 14.8996 8.58768 14.1345 7.22763 12.7745C5.86758 11.4144 5.10247 9.57046 5.10014 7.64706C5.10019 7.03186 5.32274 6.43744 5.72672 5.97346C6.13069 5.50948 6.68884 5.20726 7.29818 5.12255L8.53935 7.6049L7.52073 9.13235C7.46721 9.21291 7.43437 9.30543 7.42514 9.4017C7.41591 9.49798 7.43055 9.59505 7.46779 9.68431C8.00869 10.9704 9.03175 11.9934 10.3178 12.5343C10.4071 12.5715 10.5041 12.5862 10.6004 12.577C10.6967 12.5677 10.7892 12.5349 10.8697 12.4814L12.3972 11.4627L14.8796 12.7039C14.7948 13.3133 14.4926 13.8714 14.0286 14.2754C13.5647 14.6794 12.9702 14.9019 12.355 14.902ZM10.0021 2.20408e-07C8.26856 -0.000363697 6.5647 0.449929 5.05768 1.3067C3.55066 2.16347 2.29225 3.39729 1.40591 4.88712C0.519568 6.37694 0.0357454 8.07158 0.00190584 9.8048C-0.0319337 11.538 0.385373 13.2502 1.21288 14.7735L0.0736683 18.1922C-0.00698211 18.434 -0.0186863 18.6935 0.0398675 18.9416C0.0984213 19.1897 0.224919 19.4167 0.405183 19.5969C0.585447 19.7772 0.812352 19.9037 1.06047 19.9622C1.30858 20.0208 1.5681 20.0091 1.80994 19.9284L5.22857 18.7892C6.56679 19.5154 8.05317 19.9265 9.57437 19.991C11.0956 20.0555 12.6114 19.7719 14.0063 19.1616C15.4013 18.5513 16.6384 17.6306 17.6235 16.4696C18.6085 15.3086 19.3154 13.938 19.6903 12.4623C20.0652 10.9867 20.0982 9.44484 19.7868 7.95447C19.4753 6.46409 18.8277 5.06451 17.8932 3.86245C16.9587 2.66039 15.7621 1.68758 14.3945 1.01821C13.027 0.348845 11.5247 0.000589078 10.0021 2.20408e-07ZM10.0021 18.8235C8.45105 18.8239 6.92731 18.4154 5.58445 17.6392C5.49491 17.5878 5.39359 17.5604 5.29034 17.5598C5.22704 17.5602 5.16419 17.5704 5.10406 17.5902L1.43837 18.8118C1.40383 18.8233 1.36675 18.825 1.33131 18.8166C1.29586 18.8082 1.26345 18.7902 1.23769 18.7644C1.21194 18.7387 1.19387 18.7062 1.18551 18.6708C1.17714 18.6353 1.17881 18.5983 1.19033 18.5637L2.4119 14.902C2.43833 14.8228 2.44763 14.739 2.43918 14.656C2.43073 14.573 2.40472 14.4928 2.36288 14.4206C1.38961 12.7393 0.998391 10.7838 1.24993 8.8575C1.50148 6.93118 2.38172 5.14173 3.75409 3.76675C5.12646 2.39177 6.91425 1.50813 8.84008 1.25293C10.7659 0.997736 12.7221 1.38524 14.4053 2.35533C16.0884 3.32541 17.4043 4.82385 18.1489 6.61817C18.8935 8.41249 19.0251 10.4024 18.5233 12.2791C18.0215 14.1559 16.9144 15.8146 15.3736 16.9978C13.8329 18.1811 11.9448 18.8229 10.0021 18.8235Z" fill="#F8BC24"/>
</g>
</g>
<defs>
<clipPath id="clip0_636_4">
<rect width="20" height="20" fill="white"/>
</clipPath>
<clipPath id="clip1_636_4">
<rect width="20" height="20" fill="white"/>
</clipPath>
</defs>
</svg>
