<svg width="30" height="30" viewBox="0 0 30 30" fill="none" xmlns="http://www.w3.org/2000/svg">
<mask id="mask0_639_11" style="mask-type:luminance" maskUnits="userSpaceOnUse" x="1" y="1" width="28" height="28">
<path d="M1 1H29V29H1V1Z" fill="white"/>
</mask>
<g mask="url(#mask0_639_11)">
<path d="M17.6379 1.2057L16.7979 1.08781C14.2734 0.723301 11.6972 1.08391 9.36984 2.12759C7.04244 3.17127 5.05965 4.85502 3.65263 6.98254C2.1556 9.0162 1.26318 11.4312 1.07807 13.9497C0.892971 16.4681 1.42271 18.9877 2.60632 21.2183C2.72745 21.4419 2.80286 21.6873 2.82817 21.9404C2.85347 22.1934 2.82815 22.4489 2.75368 22.692C2.21798 24.5343 1.71703 26.3882 1.19948 28.3153C1.11236 28.6397 1.41513 28.9338 1.73684 28.8373V28.8373C3.72632 28.3068 5.71579 27.7762 7.70527 27.2899C8.12518 27.2026 8.56165 27.2437 8.9579 27.4078C10.7428 28.2789 12.6934 28.7582 14.6788 28.8134C16.6642 28.8686 18.6384 28.4985 20.469 27.7279C22.2996 26.9574 23.9442 25.8041 25.2924 24.3457C26.6406 22.8872 27.6612 21.1572 28.2858 19.2718C28.9104 17.3864 29.1244 15.3892 28.9136 13.4143C28.7028 11.4394 28.072 9.53237 27.0635 7.8213C26.055 6.11023 24.6922 4.63466 23.0665 3.49363C21.4408 2.3526 19.5899 1.57251 17.6379 1.2057ZM21.3516 20.5404C20.816 21.02 20.1629 21.349 19.4587 21.4939C18.7546 21.6389 18.0246 21.5947 17.3432 21.3657C14.2557 20.495 11.577 18.5578 9.78316 15.8983C9.09815 14.9575 8.5476 13.9259 8.14737 12.8331C7.93052 12.1991 7.89142 11.5178 8.0343 10.8631C8.17718 10.2084 8.4966 9.6054 8.9579 9.11939C9.18247 8.83278 9.48815 8.62044 9.83512 8.51004C10.1821 8.39964 10.5543 8.3963 10.9032 8.50044C11.1979 8.57412 11.4042 9.00149 11.6695 9.3257C11.8856 9.93483 12.1361 10.5292 12.4211 11.1089C12.6368 11.4043 12.727 11.7732 12.6717 12.1349C12.6165 12.4966 12.4204 12.8218 12.1263 13.0394C11.4632 13.6289 11.5663 14.1152 12.0379 14.7783C13.0799 16.2808 14.5186 17.4644 16.1937 18.1973C16.6653 18.4036 17.019 18.4478 17.3284 17.9615C17.4611 17.7699 17.6379 17.6078 17.7853 17.431C18.64 16.3552 18.3747 16.3699 19.7305 16.9594C20.1628 17.1411 20.5804 17.3524 20.9832 17.5931C21.3811 17.8289 21.9853 18.0794 22.0737 18.4331C22.1588 18.8168 22.1364 19.2165 22.009 19.5883C21.8816 19.9601 21.6541 20.2896 21.3516 20.5404Z" fill="white"/>
</g>
</svg>
